Coordinates
version=1
nRows=26
nColumns=30
inDegrees=yes

Units are S.I. units (second, meters, Newtons, ...)
Angles are in degrees.

endheader
time	floatyaw	floatroll	floatpitch	floatx	floaty	floatz	pro_sup_l	deviation_l	flexion_l	cmc_flexion_l	cmc_abduction_l	mp_flexion_l	ip_flexion_l	2mcp_flexion_l	2mcp_abduction_l	2pm_flexion_l	2md_flexion_l	3mcp_flexion_l	3mcp_abduction_l	3pm_flexion_l	3md_flexion_l	4mcp_flexion_l	4mcp_abduction_l	4pm_flexion_l	4md_flexion_l	5mcp_flexion_l	5mcp_abduction_l	5pm_flexion_l	5md_flexion_l
-0.495000	-0.679314	-3.115271	87.889519	0.040636	-0.204298	0.057616	88.445231	13.665904	3.389035	9.322241	9.689369	-14.935480	-17.491757	27.918772	7.112959	27.156269	15.377074	16.661803	4.485069	31.168609	19.574337	3.252050	-2.557287	49.988970	27.145860	-1.289794	-8.229686	45.358432	23.410819
-0.485000	-0.679314	-3.115271	87.889519	0.046002	-0.202901	0.063056	89.381656	14.893521	3.741278	8.906945	9.847631	-14.973307	-17.523910	28.985470	7.277130	27.070949	15.133341	17.708604	4.478641	31.091417	19.514399	4.144075	-2.481825	49.699552	27.285286	-0.915818	-8.304992	45.300039	23.399664
-0.475000	-0.679314	-3.115271	87.889519	0.051563	-0.201709	0.068600	90.361041	16.028473	4.098230	8.545103	10.044822	-15.033588	-17.598942	30.029218	7.495512	27.062702	14.990875	18.797245	4.544709	31.091542	19.498458	4.989473	-2.461707	49.488155	27.463108	-0.636254	-8.371064	45.320850	23.496975
-0.465000	-0.679314	-3.115271	87.889519	0.057322	-0.200728	0.074217	91.367255	17.067604	4.478884	8.196781	10.311724	-15.114643	-17.692801	31.031993	7.747544	27.165083	14.963530	19.997797	4.683093	31.142473	19.529735	5.856652	-2.494561	49.374998	27.684776	-0.450250	-8.449455	45.451986	23.701530
-0.455000	-0.679314	-3.115271	87.889519	0.063272	-0.199952	0.079896	92.404321	18.013974	4.902814	7.842283	10.665978	-15.220012	-17.803747	31.989446	8.014600	27.398140	15.055000	21.350122	4.879249	31.231812	19.612732	6.807027	-2.569249	49.376122	27.947678	-0.386839	-8.569924	45.731559	24.030963
-0.445000	-0.679314	-3.115271	87.889519	0.069381	-0.199365	0.085635	93.487863	18.871189	5.393540	7.473421	11.115992	-15.349700	-17.934419	32.908716	8.280781	27.750871	15.252623	22.839699	5.107691	31.358279	19.757729	7.886382	-2.668262	49.481583	28.236579	-0.480710	-8.751147	46.172434	24.502020
-0.435000	-0.679314	-3.115271	87.889519	0.075592	-0.198947	0.091432	94.632434	19.638604	5.978077	7.081814	11.668958	-15.493339	-18.075960	33.795759	8.530631	28.184684	15.532329	24.393525	5.338587	31.529094	19.984730	9.115739	-2.772903	49.653679	28.529705	-0.734162	-8.985029	46.744958	25.110211
-0.425000	-0.679314	-3.115271	87.889519	0.081839	-0.198683	0.097269	95.840389	20.310204	6.681423	6.651260	12.337488	-15.628690	-18.202380	34.642780	8.748637	28.652020	15.870185	25.900485	5.545774	31.756920	20.322343	10.484793	-2.869248	49.845255	28.811616	-1.081809	-9.235989	47.380627	25.820099
-0.415000	-0.679314	-3.115271	87.889519	0.088065	-0.198572	0.103118	97.096915	20.877950	7.518394	6.158335	13.140520	-15.726951	-18.277794	35.424995	8.922723	29.118220	16.252753	27.245802	5.713209	32.057045	20.801016	11.955234	-2.952194	50.025051	29.083843	-1.380739	-9.457644	47.993781	26.571406
-0.405000	-0.679314	-3.115271	87.889519	0.094228	-0.198634	0.108941	98.372578	21.337467	8.487687	5.579963	14.096588	-15.762979	-18.271625	36.108299	9.049540	29.575733	16.680330	28.343588	5.837388	32.445461	21.442867	13.476725	-3.025845	50.194511	29.366062	-1.438846	-9.616965	48.509957	27.296198
-0.395000	-0.679314	-3.115271	87.889519	0.100302	-0.198911	0.114692	99.631274	21.692219	9.571992	4.903209	15.211313	-15.725548	-18.172632	36.662070	9.137143	30.045192	17.162130	29.156364	5.925144	32.936338	22.251502	15.008232	-3.100324	50.386733	29.686542	-1.073576	-9.710482	48.887465	27.937134
-0.385000	-0.679314	-3.115271	87.889519	0.106268	-0.199451	0.120327	100.840032	21.953588	10.744073	4.132518	16.465370	-15.622482	-17.994204	37.069331	9.202478	30.564163	17.707110	29.698715	5.988333	33.537001	23.206033	16.532205	-3.186584	50.648648	30.067276	-0.175372	-9.763285	49.124756	28.459872
-0.375000	-0.679314	-3.115271	87.889519	0.112098	-0.200294	0.125805	101.978087	22.137542	11.975007	3.291280	17.811080	-15.478070	-17.768794	37.329761	9.264761	31.169277	18.315904	30.028035	6.038075	34.241197	24.262558	18.053682	-3.291364	51.016990	30.512691	1.253690	-9.813568	49.254469	28.858342
-0.365000	-0.679314	-3.115271	87.889519	0.117755	-0.201453	0.131097	103.043676	22.260823	13.240052	2.416970	19.182151	-15.323999	-17.534935	37.455941	9.338353	31.879697	18.977895	30.227229	6.080986	35.024445	25.363259	19.586845	-3.414262	51.501172	31.008292	3.102636	-9.893134	49.329017	29.153660
-0.355000	-0.679314	-3.115271	87.889519	0.123195	-0.202909	0.136190	104.056806	22.338925	14.519759	1.552011	20.513279	-15.187966	-17.323309	37.466430	9.428555	32.688736	19.674583	30.384013	6.118476	35.845210	26.449992	21.139317	-3.547957	52.080049	31.528601	5.191712	-10.014004	49.402598	29.386973
-0.345000	-0.679314	-3.115271	87.889519	0.128375	-0.204615	0.141080	105.055997	22.385842	15.797109	0.734614	21.760111	-15.084579	-17.147948	37.379801	9.531677	33.566203	20.387390	30.571003	6.148577	36.652549	27.477764	22.704115	-3.681382	52.710593	32.047987	7.330427	-10.166201	49.514545	29.607536
-0.335000	-0.679314	-3.115271	87.889519	0.133262	-0.206515	0.145772	106.088326	22.414297	17.053697	-0.006610	22.910314	-15.011415	-17.005408	37.212267	9.638283	34.468713	21.105638	30.830867	6.168785	37.397790	28.423901	24.261808	-3.804363	53.342394	32.548128	9.370224	-10.325961	49.679896	29.859772
-0.325000	-0.679314	-3.115271	87.889519	0.137834	-0.208559	0.150271	107.195323	22.435768	18.268195	-0.653043	23.982323	-14.950783	-16.880854	36.979203	9.737255	35.352083	21.829904	31.170521	6.178346	38.046371	29.290221	25.788273	-3.911522	53.933246	33.020273	11.234297	-10.469030	49.891840	30.174010
-0.315000	-0.679314	-3.115271	87.889519	0.142083	-0.210715	0.154578	108.399906	22.460598	19.418636	-1.192877	25.014327	-14.876105	-16.757422	36.698775	9.818719	36.180745	22.568386	31.566521	6.179175	38.585965	30.098036	27.261982	-4.003517	54.462505	33.464413	12.917960	-10.581885	50.135668	30.564164
-0.305000	-0.679314	-3.115271	87.889519	0.146012	-0.212972	0.158685	109.699292	22.498374	20.487237	-1.617087	26.048593	-14.761029	-16.624709	36.394602	9.875546	36.932743	23.328326	31.979874	6.175353	39.027929	30.878281	28.668060	-4.085081	54.938052	33.888077	14.464886	-10.665800	50.407108	31.032157
-0.295000	-0.679314	-3.115271	87.889519	0.149632	-0.215332	0.162577	111.065401	22.557753	21.464459	-1.917318	27.116202	-14.588761	-16.483315	36.094906	9.904201	37.601966	24.107930	32.374003	6.171627	39.401941	31.660390	29.999533	-4.161292	55.393059	34.305619	15.933125	-10.733181	50.724212	31.574849
-0.285000	-0.679314	-3.115271	87.889519	0.152952	-0.217795	0.166222	112.450764	22.644740	22.349430	-2.087498	28.226351	-14.358517	-16.344162	35.828118	9.905366	38.199434	24.894201	32.727881	6.171554	39.747465	32.463431	31.257189	-4.234508	55.873207	34.736712	17.366538	-10.799449	51.125331	32.187887
-0.275000	-0.679314	-3.115271	87.889519	0.155975	-0.220357	0.169578	113.797144	22.759647	23.146408	-2.129093	29.362955	-14.086357	-16.223260	35.617899	9.883679	38.753340	25.668849	33.039786	6.176090	40.106969	33.292489	32.449490	-4.303637	56.420498	35.202353	18.782299	-10.875030	51.654324	32.864389
-0.265000	-0.679314	-3.115271	87.889519	0.158692	-0.223002	0.172597	115.045503	22.894640	23.859231	-2.057386	30.489265	-13.799684	-16.134320	35.481284	9.845981	39.305671	26.419518	33.323270	6.183328	40.522911	34.141959	33.593569	-4.365602	57.061209	35.718499	20.176396	-10.960860	52.341580	33.591819
-0.255000	-0.679314	-3.115271	87.889519	0.161093	-0.225707	0.175242	116.146613	23.034001	24.486244	-1.904559	31.558820	-13.527803	-16.082641	35.431467	9.798646	39.903445	27.149313	33.600566	6.189598	41.036232	35.003576	34.716231	-4.417593	57.802107	36.289885	21.539689	-11.048665	53.191224	34.351602
-0.245000	-0.679314	-3.115271	87.889519	0.163175	-0.228440	0.177507	117.070479	23.157807	25.017382	-1.716244	32.528691	-13.293183	-16.063351	35.483154	9.745712	40.584915	27.877280	33.897067	6.191393	41.682727	35.872471	35.851288	-4.458726	58.634094	36.907314	22.871572	-11.125264	54.181019	35.122192
